<?xml version="1.0" encoding="UTF-8" standalone="no"?>
<!DOCTYPE svg PUBLIC "-//W3C//DTD SVG 1.1//EN"
 "http://www.w3.org/Graphics/SVG/1.1/DTD/svg11.dtd">
<!-- Generated by graphviz version 2.49.3 (20211023.0002)
 -->
<!-- Pages: 1 -->
<svg width="432pt" height="160pt"
 viewBox="0.00 0.00 431.71 159.97" xmlns="http://www.w3.org/2000/svg" xmlns:xlink="http://www.w3.org/1999/xlink">
<g id="graph0" class="graph" transform="scale(1 1) rotate(0) translate(4 155.97)">
<polygon fill="white" stroke="transparent" points="-4,4 -4,-155.97 427.71,-155.97 427.71,4 -4,4"/>
<!-- sepal length (cm) -->
<g id="node1" class="node">
<title>sepal length (cm)</title>
<polygon fill="lightgray" stroke="black" points="363.5,-139.75 285.5,-139.75 285.5,-121.75 363.5,-121.75 363.5,-139.75"/>
<text text-anchor="middle" x="324.5" y="-128.55" font-family="Times New Roman,serif" font-size="9.00">sepal length (cm)</text>
</g>
<!-- setosa -->
<g id="node5" class="node">
<title>setosa</title>
<ellipse fill="lightblue" stroke="black" cx="222.5" cy="-36.77" rx="27.65" ry="27.65"/>
<text text-anchor="middle" x="222.5" y="-34.57" font-family="Times New Roman,serif" font-size="9.00">setosa</text>
</g>
<!-- sepal length (cm)&#45;&gt;setosa -->
<g id="edge8" class="edge">
<title>sepal length (cm)&#45;&gt;setosa</title>
<path fill="none" stroke="green" stroke-width="0.12" d="M315.45,-121.59C300.94,-108.51 271.92,-82.34 250.14,-62.7"/>
<polygon fill="green" stroke="green" stroke-width="0.12" points="252.26,-59.89 242.49,-55.79 247.57,-65.09 252.26,-59.89"/>
</g>
<!-- virginica -->
<g id="node7" class="node">
<title>virginica</title>
<ellipse fill="lightblue" stroke="black" cx="324.5" cy="-36.77" rx="33.47" ry="33.47"/>
<text text-anchor="middle" x="324.5" y="-34.57" font-family="Times New Roman,serif" font-size="9.00">virginica</text>
</g>
<!-- sepal length (cm)&#45;&gt;virginica -->
<g id="edge7" class="edge">
<title>sepal length (cm)&#45;&gt;virginica</title>
<path fill="none" stroke="green" stroke-width="0.48" stroke-dasharray="1,5" d="M324.5,-121.59C324.5,-112.21 324.5,-96.1 324.5,-80.5"/>
<polygon fill="green" stroke="green" stroke-width="0.48" points="328,-80.39 324.5,-70.39 321,-80.39 328,-80.39"/>
</g>
<!-- sepal width (cm) -->
<g id="node2" class="node">
<title>sepal width (cm)</title>
<polygon fill="lightgray" stroke="black" points="172,-139.75 95,-139.75 95,-121.75 172,-121.75 172,-139.75"/>
<text text-anchor="middle" x="133.5" y="-128.55" font-family="Times New Roman,serif" font-size="9.00">sepal width (cm)</text>
</g>
<!-- sepal width (cm)&#45;&gt;setosa -->
<g id="edge1" class="edge">
<title>sepal width (cm)&#45;&gt;setosa</title>
<path fill="none" stroke="red" stroke-width="0.13" d="M141.4,-121.59C153.64,-108.94 177.75,-84.02 196.51,-64.63"/>
<polygon fill="red" stroke="red" stroke-width="0.13" points="199.22,-66.86 203.66,-57.24 194.19,-62 199.22,-66.86"/>
</g>
<!-- versicolor -->
<g id="node6" class="node">
<title>versicolor</title>
<ellipse fill="lightblue" stroke="black" cx="133.5" cy="-36.77" rx="36.54" ry="36.54"/>
<text text-anchor="middle" x="133.5" y="-34.57" font-family="Times New Roman,serif" font-size="9.00">versicolor</text>
</g>
<!-- sepal width (cm)&#45;&gt;versicolor -->
<g id="edge3" class="edge">
<title>sepal width (cm)&#45;&gt;versicolor</title>
<path fill="none" stroke="red" stroke-width="0.4" stroke-dasharray="1,5" d="M133.5,-121.59C133.5,-112.96 133.5,-98.62 133.5,-84.22"/>
<polygon fill="red" stroke="red" stroke-width="0.4" points="137,-83.81 133.5,-73.81 130,-83.81 137,-83.81"/>
</g>
<!-- petal length (cm) -->
<g id="node3" class="node">
<title>petal length (cm)</title>
<polygon fill="lightgray" stroke="black" points="77,-139.75 0,-139.75 0,-121.75 77,-121.75 77,-139.75"/>
<text text-anchor="middle" x="38.5" y="-128.55" font-family="Times New Roman,serif" font-size="9.00">petal length (cm)</text>
</g>
<!-- petal length (cm)&#45;&gt;setosa -->
<g id="edge6" class="edge">
<title>petal length (cm)&#45;&gt;setosa</title>
<path fill="none" stroke="red" stroke-width="0.12" d="M56.73,-121.71C65.41,-117.93 75.95,-113.42 85.5,-109.54 126.95,-92.7 140.9,-96.15 179.5,-73.54 184.76,-70.46 190.03,-66.74 194.98,-62.88"/>
<polygon fill="red" stroke="red" stroke-width="0.12" points="197.45,-65.38 202.96,-56.33 193.01,-59.96 197.45,-65.38"/>
</g>
<!-- petal length (cm)&#45;&gt;versicolor -->
<g id="edge9" class="edge">
<title>petal length (cm)&#45;&gt;versicolor</title>
<path fill="none" stroke="green" stroke-width="0.43" d="M46.93,-121.59C58.8,-110.1 81.1,-88.5 100.1,-70.11"/>
<polygon fill="green" stroke="green" stroke-width="0.43" points="102.7,-72.46 107.45,-62.99 97.84,-67.43 102.7,-72.46"/>
</g>
<!-- petal width (cm) -->
<g id="node4" class="node">
<title>petal width (cm)</title>
<polygon fill="lightgray" stroke="black" points="267,-139.75 190,-139.75 190,-121.75 267,-121.75 267,-139.75"/>
<text text-anchor="middle" x="228.5" y="-128.55" font-family="Times New Roman,serif" font-size="9.00">petal width (cm)</text>
</g>
<!-- petal width (cm)&#45;&gt;setosa -->
<g id="edge5" class="edge">
<title>petal width (cm)&#45;&gt;setosa</title>
<path fill="none" stroke="green" stroke-width="0.12" stroke-dasharray="1,5" d="M227.97,-121.59C227.28,-111.1 226.05,-92.2 224.93,-74.99"/>
<polygon fill="green" stroke="green" stroke-width="0.12" points="228.39,-74.34 224.25,-64.59 221.41,-74.8 228.39,-74.34"/>
</g>
<!-- petal width (cm)&#45;&gt;versicolor -->
<g id="edge2" class="edge">
<title>petal width (cm)&#45;&gt;versicolor</title>
<path fill="none" stroke="green" stroke-width="0.17" d="M220.07,-121.59C208.2,-110.1 185.9,-88.5 166.9,-70.11"/>
<polygon fill="green" stroke="green" stroke-width="0.17" points="169.16,-67.43 159.55,-62.99 164.3,-72.46 169.16,-67.43"/>
</g>
<!-- petal width (cm)&#45;&gt;virginica -->
<g id="edge4" class="edge">
<title>petal width (cm)&#45;&gt;virginica</title>
<path fill="none" stroke="green" stroke-width="0.37" d="M237.02,-121.59C249.55,-109.58 273.61,-86.53 293.32,-67.64"/>
<polygon fill="green" stroke="green" stroke-width="0.37" points="295.84,-70.08 300.63,-60.64 290.99,-65.03 295.84,-70.08"/>
</g>
<!-- 114 -->
<g id="node8" class="node">
<title>114</title>
<ellipse fill="white" stroke="black" cx="402.5" cy="-130.75" rx="21.43" ry="21.43"/>
<text text-anchor="middle" x="402.5" y="-128.55" font-family="Times New Roman,serif" font-size="9.00">114</text>
</g>
<!-- 114&#45;&gt;virginica -->
<g id="edge10" class="edge">
<title>114&#45;&gt;virginica</title>
<path fill="none" stroke="green" stroke-width="0.53" d="M389.27,-114.15C379.22,-102.3 365.04,-85.58 352.51,-70.8"/>
<polygon fill="green" stroke="green" stroke-width="0.53" points="354.89,-68.2 345.75,-62.83 349.55,-72.72 354.89,-68.2"/>
</g>
</g>
</svg>
