<?xml version="1.0" encoding="UTF-8" standalone="no"?>
<!DOCTYPE svg PUBLIC "-//W3C//DTD SVG 1.1//EN"
 "http://www.w3.org/Graphics/SVG/1.1/DTD/svg11.dtd">
<!-- Generated by graphviz version 2.49.3 (20211023.0002)
 -->
<!-- Pages: 1 -->
<svg width="372pt" height="316pt"
 viewBox="0.00 0.00 372.00 316.43" xmlns="http://www.w3.org/2000/svg" xmlns:xlink="http://www.w3.org/1999/xlink">
<g id="graph0" class="graph" transform="scale(1 1) rotate(0) translate(4 312.43)">
<polygon fill="white" stroke="transparent" points="-4,4 -4,-312.43 368,-312.43 368,4 -4,4"/>
<!-- sepal length (cm) -->
<g id="node1" class="node">
<title>sepal length (cm)</title>
<polygon fill="lightgray" stroke="black" points="173.5,-308.43 95.5,-308.43 95.5,-290.43 173.5,-290.43 173.5,-308.43"/>
<text text-anchor="middle" x="134.5" y="-297.23" font-family="Times New Roman,serif" font-size="9.00">sepal length (cm)</text>
</g>
<!-- setosa -->
<g id="node5" class="node">
<title>setosa</title>
<ellipse fill="lightblue" stroke="black" cx="134.5" cy="-221.2" rx="27.65" ry="27.65"/>
<text text-anchor="middle" x="134.5" y="-219" font-family="Times New Roman,serif" font-size="9.00">setosa</text>
</g>
<!-- sepal length (cm)&#45;&gt;setosa -->
<g id="edge5" class="edge">
<title>sepal length (cm)&#45;&gt;setosa</title>
<path fill="none" stroke="red" stroke-width="0.29" stroke-dasharray="1,5" d="M134.5,-290.28C134.5,-282.67 134.5,-270.77 134.5,-259.03"/>
<polygon fill="red" stroke="red" stroke-width="0.29" points="138,-258.86 134.5,-248.86 131,-258.86 138,-258.86"/>
</g>
<!-- sepal width (cm) -->
<g id="node2" class="node">
<title>sepal width (cm)</title>
<polygon fill="lightgray" stroke="black" points="269,-308.43 192,-308.43 192,-290.43 269,-290.43 269,-308.43"/>
<text text-anchor="middle" x="230.5" y="-297.23" font-family="Times New Roman,serif" font-size="9.00">sepal width (cm)</text>
</g>
<!-- virginica -->
<g id="node7" class="node">
<title>virginica</title>
<ellipse fill="lightblue" stroke="black" cx="221.5" cy="-221.2" rx="33.47" ry="33.47"/>
<text text-anchor="middle" x="221.5" y="-219" font-family="Times New Roman,serif" font-size="9.00">virginica</text>
</g>
<!-- sepal width (cm)&#45;&gt;virginica -->
<g id="edge1" class="edge">
<title>sepal width (cm)&#45;&gt;virginica</title>
<path fill="none" stroke="red" stroke-width="0.32" d="M229.54,-290.28C228.78,-283.82 227.65,-274.27 226.48,-264.36"/>
<polygon fill="red" stroke="red" stroke-width="0.32" points="229.95,-263.94 225.3,-254.42 223,-264.76 229.95,-263.94"/>
</g>
<!-- petal length (cm) -->
<g id="node3" class="node">
<title>petal length (cm)</title>
<polygon fill="lightgray" stroke="black" points="364,-308.43 287,-308.43 287,-290.43 364,-290.43 364,-308.43"/>
<text text-anchor="middle" x="325.5" y="-297.23" font-family="Times New Roman,serif" font-size="9.00">petal length (cm)</text>
</g>
<!-- petal length (cm)&#45;&gt;virginica -->
<g id="edge2" class="edge">
<title>petal length (cm)&#45;&gt;virginica</title>
<path fill="none" stroke="red" stroke-width="0.19" d="M314.37,-290.28C300.55,-280.15 276.34,-262.4 256.1,-247.56"/>
<polygon fill="red" stroke="red" stroke-width="0.19" points="258.13,-244.71 248,-241.62 253.99,-250.36 258.13,-244.71"/>
</g>
<!-- 246 -->
<g id="node8" class="node">
<title>246</title>
<ellipse fill="white" stroke="black" cx="177.5" cy="-130.75" rx="21.43" ry="21.43"/>
<text text-anchor="middle" x="177.5" y="-128.55" font-family="Times New Roman,serif" font-size="9.00">246</text>
</g>
<!-- petal length (cm)&#45;&gt;246 -->
<g id="edge7" class="edge">
<title>petal length (cm)&#45;&gt;246</title>
<path fill="none" stroke="green" stroke-width="0.24" stroke-dasharray="1,5" d="M322.55,-290.38C315.11,-270.93 293.99,-220.58 263.5,-187.97 246.9,-170.21 223.61,-155.43 205.45,-145.49"/>
<polygon fill="green" stroke="green" stroke-width="0.24" points="206.96,-142.33 196.49,-140.74 203.69,-148.52 206.96,-142.33"/>
</g>
<!-- petal width (cm) -->
<g id="node4" class="node">
<title>petal width (cm)</title>
<polygon fill="lightgray" stroke="black" points="77,-308.43 0,-308.43 0,-290.43 77,-290.43 77,-308.43"/>
<text text-anchor="middle" x="38.5" y="-297.23" font-family="Times New Roman,serif" font-size="9.00">petal width (cm)</text>
</g>
<!-- petal width (cm)&#45;&gt;setosa -->
<g id="edge3" class="edge">
<title>petal width (cm)&#45;&gt;setosa</title>
<path fill="none" stroke="red" stroke-width="0.49" d="M48.77,-290.28C62.15,-279.65 86.08,-260.65 105.26,-245.42"/>
<polygon fill="red" stroke="red" stroke-width="0.49" points="107.5,-248.11 113.15,-239.15 103.14,-242.63 107.5,-248.11"/>
</g>
<!-- versicolor -->
<g id="node6" class="node">
<title>versicolor</title>
<ellipse fill="lightblue" stroke="black" cx="86.5" cy="-36.77" rx="36.54" ry="36.54"/>
<text text-anchor="middle" x="86.5" y="-34.57" font-family="Times New Roman,serif" font-size="9.00">versicolor</text>
</g>
<!-- petal width (cm)&#45;&gt;versicolor -->
<g id="edge6" class="edge">
<title>petal width (cm)&#45;&gt;versicolor</title>
<path fill="none" stroke="red" stroke-width="0.55" d="M39.99,-290.35C45.69,-259.41 66.36,-147.13 78.14,-83.18"/>
<polygon fill="red" stroke="red" stroke-width="0.55" points="81.65,-83.43 80.02,-72.97 74.77,-82.17 81.65,-83.43"/>
</g>
<!-- petal width (cm)&#45;&gt;virginica -->
<g id="edge4" class="edge">
<title>petal width (cm)&#45;&gt;virginica</title>
<path fill="none" stroke="red" stroke-width="0.41" stroke-dasharray="1,5" d="M70.28,-290.37C97.78,-282.82 138.26,-270.33 171.5,-254.43 176.27,-252.15 181.13,-249.5 185.86,-246.7"/>
<polygon fill="red" stroke="red" stroke-width="0.41" points="188.05,-249.46 194.72,-241.23 184.37,-243.51 188.05,-249.46"/>
</g>
<!-- setosa&#45;&gt;246 -->
<g id="edge10" class="edge">
<title>setosa&#45;&gt;246</title>
<path fill="none" stroke="red" stroke-width="0.16" stroke-dasharray="1,5" d="M146.25,-196.03C151.73,-184.76 158.28,-171.29 163.96,-159.6"/>
<polygon fill="red" stroke="red" stroke-width="0.16" points="167.27,-160.8 168.49,-150.28 160.97,-157.74 167.27,-160.8"/>
</g>
<!-- virginica&#45;&gt;246 -->
<g id="edge9" class="edge">
<title>virginica&#45;&gt;246</title>
<path fill="none" stroke="green" stroke-width="0.29" stroke-dasharray="1,5" d="M207.09,-191.24C201.96,-180.93 196.21,-169.36 191.15,-159.18"/>
<polygon fill="green" stroke="green" stroke-width="0.29" points="194.14,-157.34 186.55,-149.94 187.87,-160.45 194.14,-157.34"/>
</g>
<!-- 246&#45;&gt;versicolor -->
<g id="edge8" class="edge">
<title>246&#45;&gt;versicolor</title>
<path fill="none" stroke="red" stroke-width="0.33" stroke-dasharray="1,5" d="M162.88,-114.97C151.14,-103.1 134.19,-85.98 119.25,-70.87"/>
<polygon fill="red" stroke="red" stroke-width="0.33" points="121.63,-68.3 112.11,-63.65 116.65,-73.22 121.63,-68.3"/>
</g>
</g>
</svg>
