<?xml version="1.0" encoding="UTF-8" standalone="no"?>
<!DOCTYPE svg PUBLIC "-//W3C//DTD SVG 1.1//EN"
 "http://www.w3.org/Graphics/SVG/1.1/DTD/svg11.dtd">
<!-- Generated by graphviz version 2.49.3 (20211023.0002)
 -->
<!-- Pages: 1 -->
<svg width="372pt" height="136pt"
 viewBox="0.00 0.00 371.50 135.54" xmlns="http://www.w3.org/2000/svg" xmlns:xlink="http://www.w3.org/1999/xlink">
<g id="graph0" class="graph" transform="scale(1 1) rotate(0) translate(4 131.54)">
<polygon fill="white" stroke="transparent" points="-4,4 -4,-131.54 367.5,-131.54 367.5,4 -4,4"/>
<!-- sepal length (cm) -->
<g id="node1" class="node">
<title>sepal length (cm)</title>
<polygon fill="lightgray" stroke="black" points="78,-127.54 0,-127.54 0,-109.54 78,-109.54 78,-127.54"/>
<text text-anchor="middle" x="39" y="-116.34" font-family="Times New Roman,serif" font-size="9.00">sepal length (cm)</text>
</g>
<!-- versicolor -->
<g id="node6" class="node">
<title>versicolor</title>
<ellipse fill="lightblue" stroke="black" cx="135" cy="-36.77" rx="36.54" ry="36.54"/>
<text text-anchor="middle" x="135" y="-34.57" font-family="Times New Roman,serif" font-size="9.00">versicolor</text>
</g>
<!-- sepal length (cm)&#45;&gt;versicolor -->
<g id="edge6" class="edge">
<title>sepal length (cm)&#45;&gt;versicolor</title>
<path fill="none" stroke="green" stroke-width="0.21" d="M48.91,-109.3C60.71,-99.5 81.08,-82.58 99.04,-67.65"/>
<polygon fill="green" stroke="green" stroke-width="0.21" points="101.63,-70.05 107.08,-60.97 97.16,-64.67 101.63,-70.05"/>
</g>
<!-- virginica -->
<g id="node7" class="node">
<title>virginica</title>
<ellipse fill="lightblue" stroke="black" cx="226" cy="-36.77" rx="33.47" ry="33.47"/>
<text text-anchor="middle" x="226" y="-34.57" font-family="Times New Roman,serif" font-size="9.00">virginica</text>
</g>
<!-- sepal length (cm)&#45;&gt;virginica -->
<g id="edge4" class="edge">
<title>sepal length (cm)&#45;&gt;virginica</title>
<path fill="none" stroke="green" stroke-width="0.15" d="M78.19,-109.54C107.6,-102.57 148.25,-90.84 181,-73.54 185.08,-71.38 189.16,-68.84 193.09,-66.12"/>
<polygon fill="green" stroke="green" stroke-width="0.15" points="195.48,-68.71 201.45,-59.95 191.32,-63.07 195.48,-68.71"/>
</g>
<!-- sepal width (cm) -->
<g id="node2" class="node">
<title>sepal width (cm)</title>
<polygon fill="lightgray" stroke="black" points="173.5,-127.54 96.5,-127.54 96.5,-109.54 173.5,-109.54 173.5,-127.54"/>
<text text-anchor="middle" x="135" y="-116.34" font-family="Times New Roman,serif" font-size="9.00">sepal width (cm)</text>
</g>
<!-- setosa -->
<g id="node5" class="node">
<title>setosa</title>
<ellipse fill="lightblue" stroke="black" cx="305" cy="-36.77" rx="27.65" ry="27.65"/>
<text text-anchor="middle" x="305" y="-34.57" font-family="Times New Roman,serif" font-size="9.00">setosa</text>
</g>
<!-- sepal width (cm)&#45;&gt;setosa -->
<g id="edge8" class="edge">
<title>sepal width (cm)&#45;&gt;setosa</title>
<path fill="none" stroke="green" stroke-width="0.2" d="M173.64,-109.62C201.29,-102.83 238.66,-91.29 268,-73.54 271.98,-71.13 275.87,-68.23 279.54,-65.12"/>
<polygon fill="green" stroke="green" stroke-width="0.2" points="282.17,-67.47 287.18,-58.14 277.44,-62.3 282.17,-67.47"/>
</g>
<!-- sepal width (cm)&#45;&gt;versicolor -->
<g id="edge7" class="edge">
<title>sepal width (cm)&#45;&gt;versicolor</title>
<path fill="none" stroke="green" stroke-width="0.31" stroke-dasharray="1,5" d="M135,-109.3C135,-102.98 135,-93.7 135,-83.9"/>
<polygon fill="green" stroke="green" stroke-width="0.31" points="138.5,-83.6 135,-73.6 131.5,-83.6 138.5,-83.6"/>
</g>
<!-- petal length (cm) -->
<g id="node3" class="node">
<title>petal length (cm)</title>
<polygon fill="lightgray" stroke="black" points="363.5,-127.54 286.5,-127.54 286.5,-109.54 363.5,-109.54 363.5,-127.54"/>
<text text-anchor="middle" x="325" y="-116.34" font-family="Times New Roman,serif" font-size="9.00">petal length (cm)</text>
</g>
<!-- petal length (cm)&#45;&gt;setosa -->
<g id="edge9" class="edge">
<title>petal length (cm)&#45;&gt;setosa</title>
<path fill="none" stroke="red" stroke-width="0.2" stroke-dasharray="1,5" d="M322.93,-109.3C320.8,-100.8 317.33,-86.95 314,-73.68"/>
<polygon fill="red" stroke="red" stroke-width="0.2" points="317.34,-72.6 311.52,-63.75 310.55,-74.31 317.34,-72.6"/>
</g>
<!-- petal length (cm)&#45;&gt;virginica -->
<g id="edge2" class="edge">
<title>petal length (cm)&#45;&gt;virginica</title>
<path fill="none" stroke="green" stroke-width="0.29" stroke-dasharray="1,5" d="M313.95,-109.26C302.38,-100.53 283.73,-86.3 268,-73.54 264.91,-71.03 261.71,-68.4 258.53,-65.74"/>
<polygon fill="green" stroke="green" stroke-width="0.29" points="260.61,-62.92 250.71,-59.15 256.1,-68.27 260.61,-62.92"/>
</g>
<!-- petal width (cm) -->
<g id="node4" class="node">
<title>petal width (cm)</title>
<polygon fill="lightgray" stroke="black" points="268.5,-127.54 191.5,-127.54 191.5,-109.54 268.5,-109.54 268.5,-127.54"/>
<text text-anchor="middle" x="230" y="-116.34" font-family="Times New Roman,serif" font-size="9.00">petal width (cm)</text>
</g>
<!-- petal width (cm)&#45;&gt;setosa -->
<g id="edge3" class="edge">
<title>petal width (cm)&#45;&gt;setosa</title>
<path fill="none" stroke="red" stroke-width="0.15" d="M237.74,-109.3C247.52,-98.9 264.83,-80.49 279.44,-64.95"/>
<polygon fill="red" stroke="red" stroke-width="0.15" points="282.05,-67.29 286.35,-57.6 276.95,-62.49 282.05,-67.29"/>
</g>
<!-- petal width (cm)&#45;&gt;versicolor -->
<g id="edge1" class="edge">
<title>petal width (cm)&#45;&gt;versicolor</title>
<path fill="none" stroke="green" stroke-width="0.13" stroke-dasharray="1,5" d="M220.19,-109.3C208.6,-99.57 188.64,-82.81 170.96,-67.97"/>
<polygon fill="green" stroke="green" stroke-width="0.13" points="172.94,-65.06 163.04,-61.31 168.44,-70.42 172.94,-65.06"/>
</g>
<!-- petal width (cm)&#45;&gt;virginica -->
<g id="edge5" class="edge">
<title>petal width (cm)&#45;&gt;virginica</title>
<path fill="none" stroke="green" stroke-width="0.19" stroke-dasharray="1,5" d="M229.59,-109.3C229.23,-102.23 228.69,-91.46 228.14,-80.4"/>
<polygon fill="green" stroke="green" stroke-width="0.19" points="231.63,-80.08 227.63,-70.27 224.63,-80.43 231.63,-80.08"/>
</g>
</g>
</svg>
