<?xml version="1.0" encoding="UTF-8" standalone="no"?>
<!DOCTYPE svg PUBLIC "-//W3C//DTD SVG 1.1//EN"
 "http://www.w3.org/Graphics/SVG/1.1/DTD/svg11.dtd">
<!-- Generated by graphviz version 2.49.3 (20211023.0002)
 -->
<!-- Pages: 1 -->
<svg width="372pt" height="136pt"
 viewBox="0.00 0.00 371.50 135.54" xmlns="http://www.w3.org/2000/svg" xmlns:xlink="http://www.w3.org/1999/xlink">
<g id="graph0" class="graph" transform="scale(1 1) rotate(0) translate(4 131.54)">
<polygon fill="white" stroke="transparent" points="-4,4 -4,-131.54 367.5,-131.54 367.5,4 -4,4"/>
<!-- sepal length (cm) -->
<g id="node1" class="node">
<title>sepal length (cm)</title>
<polygon fill="lightgray" stroke="black" points="78,-127.54 0,-127.54 0,-109.54 78,-109.54 78,-127.54"/>
<text text-anchor="middle" x="39" y="-116.34" font-family="Times New Roman,serif" font-size="9.00">sepal length (cm)</text>
</g>
<!-- setosa -->
<g id="node5" class="node">
<title>setosa</title>
<ellipse fill="lightblue" stroke="black" cx="143" cy="-36.77" rx="27.65" ry="27.65"/>
<text text-anchor="middle" x="143" y="-34.57" font-family="Times New Roman,serif" font-size="9.00">setosa</text>
</g>
<!-- sepal length (cm)&#45;&gt;setosa -->
<g id="edge3" class="edge">
<title>sepal length (cm)&#45;&gt;setosa</title>
<path fill="none" stroke="red" stroke-width="0.17" d="M53.39,-109.42C67.58,-101.14 89.59,-87.57 107,-73.54 110.49,-70.73 114.02,-67.62 117.42,-64.45"/>
<polygon fill="red" stroke="red" stroke-width="0.17" points="119.87,-66.94 124.64,-57.48 115.01,-61.91 119.87,-66.94"/>
</g>
<!-- versicolor -->
<g id="node6" class="node">
<title>versicolor</title>
<ellipse fill="lightblue" stroke="black" cx="61" cy="-36.77" rx="36.54" ry="36.54"/>
<text text-anchor="middle" x="61" y="-34.57" font-family="Times New Roman,serif" font-size="9.00">versicolor</text>
</g>
<!-- sepal length (cm)&#45;&gt;versicolor -->
<g id="edge5" class="edge">
<title>sepal length (cm)&#45;&gt;versicolor</title>
<path fill="none" stroke="green" stroke-width="0.22" d="M41.27,-109.3C43.1,-102.67 45.83,-92.77 48.68,-82.43"/>
<polygon fill="green" stroke="green" stroke-width="0.22" points="52.14,-83.06 51.43,-72.49 45.39,-81.2 52.14,-83.06"/>
</g>
<!-- sepal width (cm) -->
<g id="node2" class="node">
<title>sepal width (cm)</title>
<polygon fill="lightgray" stroke="black" points="173.5,-127.54 96.5,-127.54 96.5,-109.54 173.5,-109.54 173.5,-127.54"/>
<text text-anchor="middle" x="135" y="-116.34" font-family="Times New Roman,serif" font-size="9.00">sepal width (cm)</text>
</g>
<!-- sepal width (cm)&#45;&gt;setosa -->
<g id="edge6" class="edge">
<title>sepal width (cm)&#45;&gt;setosa</title>
<path fill="none" stroke="green" stroke-width="0.5" d="M135.83,-109.3C136.66,-101.01 138,-87.62 139.3,-74.66"/>
<polygon fill="green" stroke="green" stroke-width="0.5" points="142.81,-74.76 140.32,-64.46 135.84,-74.06 142.81,-74.76"/>
</g>
<!-- sepal width (cm)&#45;&gt;versicolor -->
<g id="edge9" class="edge">
<title>sepal width (cm)&#45;&gt;versicolor</title>
<path fill="none" stroke="green" stroke-width="0.11" stroke-dasharray="1,5" d="M127.36,-109.3C119.13,-100.44 105.51,-85.74 92.73,-71.98"/>
<polygon fill="green" stroke="green" stroke-width="0.11" points="95.13,-69.41 85.76,-64.46 90,-74.17 95.13,-69.41"/>
</g>
<!-- virginica -->
<g id="node7" class="node">
<title>virginica</title>
<ellipse fill="lightblue" stroke="black" cx="230" cy="-36.77" rx="33.47" ry="33.47"/>
<text text-anchor="middle" x="230" y="-34.57" font-family="Times New Roman,serif" font-size="9.00">virginica</text>
</g>
<!-- sepal width (cm)&#45;&gt;virginica -->
<g id="edge4" class="edge">
<title>sepal width (cm)&#45;&gt;virginica</title>
<path fill="none" stroke="red" stroke-width="0.39" d="M144.81,-109.3C156.98,-99.08 178.36,-81.13 196.65,-65.77"/>
<polygon fill="red" stroke="red" stroke-width="0.39" points="199.39,-68.04 204.8,-58.93 194.89,-62.68 199.39,-68.04"/>
</g>
<!-- petal length (cm) -->
<g id="node3" class="node">
<title>petal length (cm)</title>
<polygon fill="lightgray" stroke="black" points="268.5,-127.54 191.5,-127.54 191.5,-109.54 268.5,-109.54 268.5,-127.54"/>
<text text-anchor="middle" x="230" y="-116.34" font-family="Times New Roman,serif" font-size="9.00">petal length (cm)</text>
</g>
<!-- petal length (cm)&#45;&gt;versicolor -->
<g id="edge8" class="edge">
<title>petal length (cm)&#45;&gt;versicolor</title>
<path fill="none" stroke="green" stroke-width="0.11" stroke-dasharray="1,5" d="M198.46,-109.48C172.64,-102.16 135.67,-89.99 106,-73.54 102.94,-71.84 99.87,-69.94 96.86,-67.92"/>
<polygon fill="green" stroke="green" stroke-width="0.11" points="98.73,-64.95 88.56,-61.98 94.66,-70.65 98.73,-64.95"/>
</g>
<!-- petal length (cm)&#45;&gt;virginica -->
<g id="edge7" class="edge">
<title>petal length (cm)&#45;&gt;virginica</title>
<path fill="none" stroke="green" stroke-width="0.44" d="M230,-109.3C230,-102.23 230,-91.46 230,-80.4"/>
<polygon fill="green" stroke="green" stroke-width="0.44" points="233.5,-80.27 230,-70.27 226.5,-80.27 233.5,-80.27"/>
</g>
<!-- petal width (cm) -->
<g id="node4" class="node">
<title>petal width (cm)</title>
<polygon fill="lightgray" stroke="black" points="363.5,-127.54 286.5,-127.54 286.5,-109.54 363.5,-109.54 363.5,-127.54"/>
<text text-anchor="middle" x="325" y="-116.34" font-family="Times New Roman,serif" font-size="9.00">petal width (cm)</text>
</g>
<!-- petal width (cm)&#45;&gt;setosa -->
<g id="edge2" class="edge">
<title>petal width (cm)&#45;&gt;setosa</title>
<path fill="none" stroke="red" stroke-width="0.23" d="M288.08,-109.53C259.65,-102.47 219.94,-90.62 188,-73.54 182.22,-70.45 176.45,-66.59 171.06,-62.57"/>
<polygon fill="red" stroke="red" stroke-width="0.23" points="172.98,-59.62 162.96,-56.19 168.65,-65.12 172.98,-59.62"/>
</g>
<!-- petal width (cm)&#45;&gt;virginica -->
<g id="edge1" class="edge">
<title>petal width (cm)&#45;&gt;virginica</title>
<path fill="none" stroke="green" stroke-width="0.24" stroke-dasharray="1,5" d="M315.19,-109.3C303.02,-99.08 281.64,-81.13 263.35,-65.77"/>
<polygon fill="green" stroke="green" stroke-width="0.24" points="265.11,-62.68 255.2,-58.93 260.61,-68.04 265.11,-62.68"/>
</g>
</g>
</svg>
