<?xml version="1.0" encoding="UTF-8" standalone="no"?>
<!DOCTYPE svg PUBLIC "-//W3C//DTD SVG 1.1//EN"
 "http://www.w3.org/Graphics/SVG/1.1/DTD/svg11.dtd">
<!-- Generated by graphviz version 2.49.3 (20211023.0002)
 -->
<!-- Pages: 1 -->
<svg width="372pt" height="136pt"
 viewBox="0.00 0.00 371.50 135.54" xmlns="http://www.w3.org/2000/svg" xmlns:xlink="http://www.w3.org/1999/xlink">
<g id="graph0" class="graph" transform="scale(1 1) rotate(0) translate(4 131.54)">
<polygon fill="white" stroke="transparent" points="-4,4 -4,-131.54 367.5,-131.54 367.5,4 -4,4"/>
<!-- sepal length (cm) -->
<g id="node1" class="node">
<title>sepal length (cm)</title>
<polygon fill="lightgray" stroke="black" points="78,-127.54 0,-127.54 0,-109.54 78,-109.54 78,-127.54"/>
<text text-anchor="middle" x="39" y="-116.34" font-family="Times New Roman,serif" font-size="9.00">sepal length (cm)</text>
</g>
<!-- setosa -->
<g id="node5" class="node">
<title>setosa</title>
<ellipse fill="lightblue" stroke="black" cx="97" cy="-36.77" rx="27.65" ry="27.65"/>
<text text-anchor="middle" x="97" y="-34.57" font-family="Times New Roman,serif" font-size="9.00">setosa</text>
</g>
<!-- sepal length (cm)&#45;&gt;setosa -->
<g id="edge8" class="edge">
<title>sepal length (cm)&#45;&gt;setosa</title>
<path fill="none" stroke="red" stroke-width="0.37" stroke-dasharray="1,5" d="M44.99,-109.3C52.05,-99.59 64.2,-82.88 74.98,-68.05"/>
<polygon fill="red" stroke="red" stroke-width="0.37" points="78.07,-69.75 81.12,-59.6 72.41,-65.63 78.07,-69.75"/>
</g>
<!-- sepal width (cm) -->
<g id="node2" class="node">
<title>sepal width (cm)</title>
<polygon fill="lightgray" stroke="black" points="173.5,-127.54 96.5,-127.54 96.5,-109.54 173.5,-109.54 173.5,-127.54"/>
<text text-anchor="middle" x="135" y="-116.34" font-family="Times New Roman,serif" font-size="9.00">sepal width (cm)</text>
</g>
<!-- sepal width (cm)&#45;&gt;setosa -->
<g id="edge3" class="edge">
<title>sepal width (cm)&#45;&gt;setosa</title>
<path fill="none" stroke="red" stroke-width="0.27" stroke-dasharray="1,5" d="M131.08,-109.3C126.79,-100.31 119.66,-85.33 113.02,-71.4"/>
<polygon fill="red" stroke="red" stroke-width="0.27" points="116,-69.53 108.54,-62 109.68,-72.54 116,-69.53"/>
</g>
<!-- versicolor -->
<g id="node6" class="node">
<title>versicolor</title>
<ellipse fill="lightblue" stroke="black" cx="179" cy="-36.77" rx="36.54" ry="36.54"/>
<text text-anchor="middle" x="179" y="-34.57" font-family="Times New Roman,serif" font-size="9.00">versicolor</text>
</g>
<!-- sepal width (cm)&#45;&gt;versicolor -->
<g id="edge5" class="edge">
<title>sepal width (cm)&#45;&gt;versicolor</title>
<path fill="none" stroke="red" stroke-width="0.23" d="M139.54,-109.3C143.67,-101.82 150.09,-90.18 156.56,-78.45"/>
<polygon fill="red" stroke="red" stroke-width="0.23" points="159.72,-79.98 161.48,-69.53 153.59,-76.6 159.72,-79.98"/>
</g>
<!-- virginica -->
<g id="node7" class="node">
<title>virginica</title>
<ellipse fill="lightblue" stroke="black" cx="267" cy="-36.77" rx="33.47" ry="33.47"/>
<text text-anchor="middle" x="267" y="-34.57" font-family="Times New Roman,serif" font-size="9.00">virginica</text>
</g>
<!-- sepal width (cm)&#45;&gt;virginica -->
<g id="edge2" class="edge">
<title>sepal width (cm)&#45;&gt;virginica</title>
<path fill="none" stroke="red" stroke-width="0.17" stroke-dasharray="1,5" d="M155.08,-109.45C173.85,-101.5 202.31,-88.41 225,-73.54 228.33,-71.36 231.69,-68.94 234.97,-66.42"/>
<polygon fill="red" stroke="red" stroke-width="0.17" points="237.32,-69.02 242.94,-60.04 232.95,-63.56 237.32,-69.02"/>
</g>
<!-- petal length (cm) -->
<g id="node3" class="node">
<title>petal length (cm)</title>
<polygon fill="lightgray" stroke="black" points="363.5,-127.54 286.5,-127.54 286.5,-109.54 363.5,-109.54 363.5,-127.54"/>
<text text-anchor="middle" x="325" y="-116.34" font-family="Times New Roman,serif" font-size="9.00">petal length (cm)</text>
</g>
<!-- petal length (cm)&#45;&gt;virginica -->
<g id="edge6" class="edge">
<title>petal length (cm)&#45;&gt;virginica</title>
<path fill="none" stroke="green" stroke-width="0.12" stroke-dasharray="1,5" d="M319.01,-109.3C312.64,-100.53 302.12,-86.07 292.2,-72.43"/>
<polygon fill="green" stroke="green" stroke-width="0.12" points="294.86,-70.14 286.15,-64.11 289.2,-74.25 294.86,-70.14"/>
</g>
<!-- petal width (cm) -->
<g id="node4" class="node">
<title>petal width (cm)</title>
<polygon fill="lightgray" stroke="black" points="268.5,-127.54 191.5,-127.54 191.5,-109.54 268.5,-109.54 268.5,-127.54"/>
<text text-anchor="middle" x="230" y="-116.34" font-family="Times New Roman,serif" font-size="9.00">petal width (cm)</text>
</g>
<!-- petal width (cm)&#45;&gt;setosa -->
<g id="edge7" class="edge">
<title>petal width (cm)&#45;&gt;setosa</title>
<path fill="none" stroke="green" stroke-width="0.18" stroke-dasharray="1,5" d="M206.03,-109.41C185.6,-101.86 155.98,-89.4 133,-73.54 129.31,-70.99 125.67,-68.05 122.19,-64.96"/>
<polygon fill="green" stroke="green" stroke-width="0.18" points="124.59,-62.41 114.92,-58.08 119.78,-67.49 124.59,-62.41"/>
</g>
<!-- petal width (cm)&#45;&gt;versicolor -->
<g id="edge1" class="edge">
<title>petal width (cm)&#45;&gt;versicolor</title>
<path fill="none" stroke="green" stroke-width="0.21" d="M224.73,-109.3C219.69,-101.41 211.69,-88.91 203.79,-76.54"/>
<polygon fill="green" stroke="green" stroke-width="0.21" points="206.71,-74.61 198.37,-68.07 200.81,-78.38 206.71,-74.61"/>
</g>
<!-- petal width (cm)&#45;&gt;virginica -->
<g id="edge4" class="edge">
<title>petal width (cm)&#45;&gt;virginica</title>
<path fill="none" stroke="green" stroke-width="0.38" d="M233.82,-109.3C237.47,-101.44 243.24,-88.98 248.96,-76.66"/>
<polygon fill="green" stroke="green" stroke-width="0.38" points="252.25,-77.88 253.29,-67.34 245.9,-74.94 252.25,-77.88"/>
</g>
</g>
</svg>
