<?xml version="1.0" encoding="UTF-8" standalone="no"?>
<!DOCTYPE svg PUBLIC "-//W3C//DTD SVG 1.1//EN"
 "http://www.w3.org/Graphics/SVG/1.1/DTD/svg11.dtd">
<!-- Generated by graphviz version 2.49.3 (20211023.0002)
 -->
<!-- Pages: 1 -->
<svg width="372pt" height="136pt"
 viewBox="0.00 0.00 371.50 135.54" xmlns="http://www.w3.org/2000/svg" xmlns:xlink="http://www.w3.org/1999/xlink">
<g id="graph0" class="graph" transform="scale(1 1) rotate(0) translate(4 131.54)">
<polygon fill="white" stroke="transparent" points="-4,4 -4,-131.54 367.5,-131.54 367.5,4 -4,4"/>
<!-- sepal length (cm) -->
<g id="node1" class="node">
<title>sepal length (cm)</title>
<polygon fill="lightgray" stroke="black" points="78,-127.54 0,-127.54 0,-109.54 78,-109.54 78,-127.54"/>
<text text-anchor="middle" x="39" y="-116.34" font-family="Times New Roman,serif" font-size="9.00">sepal length (cm)</text>
</g>
<!-- sepal width (cm) -->
<g id="node2" class="node">
<title>sepal width (cm)</title>
<polygon fill="lightgray" stroke="black" points="363.5,-127.54 286.5,-127.54 286.5,-109.54 363.5,-109.54 363.5,-127.54"/>
<text text-anchor="middle" x="325" y="-116.34" font-family="Times New Roman,serif" font-size="9.00">sepal width (cm)</text>
</g>
<!-- versicolor -->
<g id="node6" class="node">
<title>versicolor</title>
<ellipse fill="lightblue" stroke="black" cx="230" cy="-36.77" rx="36.54" ry="36.54"/>
<text text-anchor="middle" x="230" y="-34.57" font-family="Times New Roman,serif" font-size="9.00">versicolor</text>
</g>
<!-- sepal width (cm)&#45;&gt;versicolor -->
<g id="edge5" class="edge">
<title>sepal width (cm)&#45;&gt;versicolor</title>
<path fill="none" stroke="red" stroke-width="0.14" d="M315.19,-109.3C303.6,-99.57 283.64,-82.81 265.96,-67.97"/>
<polygon fill="red" stroke="red" stroke-width="0.14" points="267.94,-65.06 258.04,-61.31 263.44,-70.42 267.94,-65.06"/>
</g>
<!-- virginica -->
<g id="node7" class="node">
<title>virginica</title>
<ellipse fill="lightblue" stroke="black" cx="321" cy="-36.77" rx="33.47" ry="33.47"/>
<text text-anchor="middle" x="321" y="-34.57" font-family="Times New Roman,serif" font-size="9.00">virginica</text>
</g>
<!-- sepal width (cm)&#45;&gt;virginica -->
<g id="edge7" class="edge">
<title>sepal width (cm)&#45;&gt;virginica</title>
<path fill="none" stroke="red" stroke-width="0.22" d="M324.59,-109.3C324.23,-102.23 323.69,-91.46 323.14,-80.4"/>
<polygon fill="red" stroke="red" stroke-width="0.22" points="326.63,-80.08 322.63,-70.27 319.63,-80.43 326.63,-80.08"/>
</g>
<!-- petal length (cm) -->
<g id="node3" class="node">
<title>petal length (cm)</title>
<polygon fill="lightgray" stroke="black" points="173.5,-127.54 96.5,-127.54 96.5,-109.54 173.5,-109.54 173.5,-127.54"/>
<text text-anchor="middle" x="135" y="-116.34" font-family="Times New Roman,serif" font-size="9.00">petal length (cm)</text>
</g>
<!-- setosa -->
<g id="node5" class="node">
<title>setosa</title>
<ellipse fill="lightblue" stroke="black" cx="142" cy="-36.77" rx="27.65" ry="27.65"/>
<text text-anchor="middle" x="142" y="-34.57" font-family="Times New Roman,serif" font-size="9.00">setosa</text>
</g>
<!-- petal length (cm)&#45;&gt;setosa -->
<g id="edge4" class="edge">
<title>petal length (cm)&#45;&gt;setosa</title>
<path fill="none" stroke="green" stroke-width="0.24" stroke-dasharray="1,5" d="M135.72,-109.3C136.45,-101.01 137.63,-87.62 138.76,-74.66"/>
<polygon fill="green" stroke="green" stroke-width="0.24" points="142.27,-74.73 139.66,-64.46 135.3,-74.12 142.27,-74.73"/>
</g>
<!-- petal length (cm)&#45;&gt;versicolor -->
<g id="edge6" class="edge">
<title>petal length (cm)&#45;&gt;versicolor</title>
<path fill="none" stroke="red" stroke-width="0.25" stroke-dasharray="1,5" d="M144.81,-109.3C156.4,-99.57 176.36,-82.81 194.04,-67.97"/>
<polygon fill="red" stroke="red" stroke-width="0.25" points="196.56,-70.42 201.96,-61.31 192.06,-65.06 196.56,-70.42"/>
</g>
<!-- petal width (cm) -->
<g id="node4" class="node">
<title>petal width (cm)</title>
<polygon fill="lightgray" stroke="black" points="268.5,-127.54 191.5,-127.54 191.5,-109.54 268.5,-109.54 268.5,-127.54"/>
<text text-anchor="middle" x="230" y="-116.34" font-family="Times New Roman,serif" font-size="9.00">petal width (cm)</text>
</g>
<!-- petal width (cm)&#45;&gt;setosa -->
<g id="edge1" class="edge">
<title>petal width (cm)&#45;&gt;setosa</title>
<path fill="none" stroke="red" stroke-width="0.34" d="M220.91,-109.3C208.96,-98.46 187.4,-78.92 169.83,-63"/>
<polygon fill="red" stroke="red" stroke-width="0.34" points="171.85,-60.1 162.09,-55.98 167.15,-65.29 171.85,-60.1"/>
</g>
<!-- petal width (cm)&#45;&gt;versicolor -->
<g id="edge3" class="edge">
<title>petal width (cm)&#45;&gt;versicolor</title>
<path fill="none" stroke="green" stroke-width="0.23" stroke-dasharray="1,5" d="M230,-109.3C230,-102.98 230,-93.7 230,-83.9"/>
<polygon fill="green" stroke="green" stroke-width="0.23" points="233.5,-83.6 230,-73.6 226.5,-83.6 233.5,-83.6"/>
</g>
<!-- petal width (cm)&#45;&gt;virginica -->
<g id="edge2" class="edge">
<title>petal width (cm)&#45;&gt;virginica</title>
<path fill="none" stroke="green" stroke-width="0.67" d="M239.4,-109.3C250.97,-99.15 271.26,-81.38 288.7,-66.08"/>
<polygon fill="green" stroke="green" stroke-width="0.67" points="291.26,-68.49 296.48,-59.27 286.65,-63.23 291.26,-68.49"/>
</g>
</g>
</svg>
