<?xml version="1.0" encoding="UTF-8" standalone="no"?>
<!DOCTYPE svg PUBLIC "-//W3C//DTD SVG 1.1//EN"
 "http://www.w3.org/Graphics/SVG/1.1/DTD/svg11.dtd">
<!-- Generated by graphviz version 2.49.3 (20211023.0002)
 -->
<!-- Pages: 1 -->
<svg width="385pt" height="299pt"
 viewBox="0.00 0.00 384.56 299.46" xmlns="http://www.w3.org/2000/svg" xmlns:xlink="http://www.w3.org/1999/xlink">
<g id="graph0" class="graph" transform="scale(1 1) rotate(0) translate(4 295.46)">
<polygon fill="white" stroke="transparent" points="-4,4 -4,-295.46 380.56,-295.46 380.56,4 -4,4"/>
<!-- sepal length (cm) -->
<g id="node1" class="node">
<title>sepal length (cm)</title>
<polygon fill="lightgray" stroke="black" points="91.06,-291.46 13.06,-291.46 13.06,-273.46 91.06,-273.46 91.06,-291.46"/>
<text text-anchor="middle" x="52.06" y="-280.26" font-family="Times New Roman,serif" font-size="9.00">sepal length (cm)</text>
</g>
<!-- setosa -->
<g id="node5" class="node">
<title>setosa</title>
<ellipse fill="lightblue" stroke="black" cx="148.06" cy="-27.58" rx="27.65" ry="27.65"/>
<text text-anchor="middle" x="148.06" y="-25.38" font-family="Times New Roman,serif" font-size="9.00">setosa</text>
</g>
<!-- sepal length (cm)&#45;&gt;setosa -->
<g id="edge3" class="edge">
<title>sepal length (cm)&#45;&gt;setosa</title>
<path fill="none" stroke="green" stroke-width="0.2" stroke-dasharray="1,5" d="M55.14,-273.34C67.3,-241.3 112.35,-122.63 134.95,-63.1"/>
<polygon fill="green" stroke="green" stroke-width="0.2" points="138.23,-64.33 138.51,-53.73 131.69,-61.84 138.23,-64.33"/>
</g>
<!-- versicolor -->
<g id="node6" class="node">
<title>versicolor</title>
<ellipse fill="lightblue" stroke="black" cx="274.06" cy="-200.69" rx="36.54" ry="36.54"/>
<text text-anchor="middle" x="274.06" y="-198.49" font-family="Times New Roman,serif" font-size="9.00">versicolor</text>
</g>
<!-- sepal length (cm)&#45;&gt;versicolor -->
<g id="edge9" class="edge">
<title>sepal length (cm)&#45;&gt;versicolor</title>
<path fill="none" stroke="green" stroke-width="0.17" stroke-dasharray="1,5" d="M79.81,-273.45C107.86,-265.16 152.34,-251.47 190.06,-237.46 203.69,-232.4 218.34,-226.37 231.52,-220.72"/>
<polygon fill="green" stroke="green" stroke-width="0.17" points="233.04,-223.88 240.83,-216.69 230.26,-217.45 233.04,-223.88"/>
</g>
<!-- virginica -->
<g id="node7" class="node">
<title>virginica</title>
<ellipse fill="lightblue" stroke="black" cx="148.06" cy="-200.69" rx="33.47" ry="33.47"/>
<text text-anchor="middle" x="148.06" y="-198.49" font-family="Times New Roman,serif" font-size="9.00">virginica</text>
</g>
<!-- sepal length (cm)&#45;&gt;virginica -->
<g id="edge7" class="edge">
<title>sepal length (cm)&#45;&gt;virginica</title>
<path fill="none" stroke="red" stroke-width="0.12" stroke-dasharray="1,5" d="M61.97,-273.23C74.46,-262.85 96.56,-244.49 115.24,-228.97"/>
<polygon fill="red" stroke="red" stroke-width="0.12" points="117.54,-231.6 122.99,-222.52 113.07,-226.22 117.54,-231.6"/>
</g>
<!-- 176 -->
<g id="node8" class="node">
<title>176</title>
<ellipse fill="white" stroke="black" cx="38.06" cy="-200.69" rx="21.43" ry="21.43"/>
<text text-anchor="middle" x="38.06" y="-198.49" font-family="Times New Roman,serif" font-size="9.00">176</text>
</g>
<!-- sepal length (cm)&#45;&gt;176 -->
<g id="edge12" class="edge">
<title>sepal length (cm)&#45;&gt;176</title>
<path fill="none" stroke="green" stroke-width="0.48" d="M50.61,-273.23C48.9,-263.46 45.94,-246.62 43.33,-231.74"/>
<polygon fill="green" stroke="green" stroke-width="0.48" points="46.77,-231.1 41.6,-221.86 39.88,-232.31 46.77,-231.1"/>
</g>
<!-- 95 -->
<g id="node9" class="node">
<title>95</title>
<ellipse fill="white" stroke="black" cx="38.06" cy="-109.54" rx="18.27" ry="18.27"/>
<text text-anchor="middle" x="38.06" y="-107.34" font-family="Times New Roman,serif" font-size="9.00">95</text>
</g>
<!-- sepal length (cm)&#45;&gt;95 -->
<g id="edge10" class="edge">
<title>sepal length (cm)&#45;&gt;95</title>
<path fill="none" stroke="green" stroke-width="0.19" stroke-dasharray="1,5" d="M39.7,-273.39C29.05,-265.63 14.42,-252.83 8.06,-237.46 -4.45,-207.27 -0.22,-195.54 8.06,-163.92 10.88,-153.12 16.44,-142.2 22.01,-133.08"/>
<polygon fill="green" stroke="green" stroke-width="0.19" points="24.99,-134.92 27.48,-124.62 19.11,-131.11 24.99,-134.92"/>
</g>
<!-- sepal width (cm) -->
<g id="node2" class="node">
<title>sepal width (cm)</title>
<polygon fill="lightgray" stroke="black" points="281.56,-291.46 204.56,-291.46 204.56,-273.46 281.56,-273.46 281.56,-291.46"/>
<text text-anchor="middle" x="243.06" y="-280.26" font-family="Times New Roman,serif" font-size="9.00">sepal width (cm)</text>
</g>
<!-- sepal width (cm)&#45;&gt;setosa -->
<g id="edge2" class="edge">
<title>sepal width (cm)&#45;&gt;setosa</title>
<path fill="none" stroke="green" stroke-width="0.18" stroke-dasharray="1,5" d="M240.01,-273.34C227.97,-241.3 183.39,-122.63 161.03,-63.1"/>
<polygon fill="green" stroke="green" stroke-width="0.18" points="164.3,-61.87 157.51,-53.73 157.75,-64.33 164.3,-61.87"/>
</g>
<!-- sepal width (cm)&#45;&gt;versicolor -->
<g id="edge8" class="edge">
<title>sepal width (cm)&#45;&gt;versicolor</title>
<path fill="none" stroke="green" stroke-width="0.34" stroke-dasharray="1,5" d="M246.26,-273.23C248.96,-266.27 253.06,-255.72 257.29,-244.85"/>
<polygon fill="green" stroke="green" stroke-width="0.34" points="260.64,-245.89 261,-235.3 254.11,-243.35 260.64,-245.89"/>
</g>
<!-- sepal width (cm)&#45;&gt;virginica -->
<g id="edge5" class="edge">
<title>sepal width (cm)&#45;&gt;virginica</title>
<path fill="none" stroke="red" stroke-width="0.42" stroke-dasharray="1,5" d="M233.25,-273.23C221.08,-263.01 199.7,-245.06 181.4,-229.69"/>
<polygon fill="red" stroke="red" stroke-width="0.42" points="183.17,-226.6 173.26,-222.85 178.67,-231.97 183.17,-226.6"/>
</g>
<!-- petal length (cm) -->
<g id="node3" class="node">
<title>petal length (cm)</title>
<polygon fill="lightgray" stroke="black" points="376.56,-291.46 299.56,-291.46 299.56,-273.46 376.56,-273.46 376.56,-291.46"/>
<text text-anchor="middle" x="338.06" y="-280.26" font-family="Times New Roman,serif" font-size="9.00">petal length (cm)</text>
</g>
<!-- petal length (cm)&#45;&gt;setosa -->
<g id="edge6" class="edge">
<title>petal length (cm)&#45;&gt;setosa</title>
<path fill="none" stroke="red" stroke-width="0.1" stroke-dasharray="1,5" d="M338.76,-273.39C340.11,-253.34 341.28,-200.3 320.06,-163.92 287.38,-107.89 221.8,-66.41 181.73,-44.98"/>
<polygon fill="red" stroke="red" stroke-width="0.1" points="183.35,-41.87 172.86,-40.34 180.1,-48.08 183.35,-41.87"/>
</g>
<!-- petal length (cm)&#45;&gt;versicolor -->
<g id="edge4" class="edge">
<title>petal length (cm)&#45;&gt;versicolor</title>
<path fill="none" stroke="green" stroke-width="0.21" d="M331.45,-273.23C324.68,-264.79 313.68,-251.07 303.11,-237.9"/>
<polygon fill="green" stroke="green" stroke-width="0.21" points="305.61,-235.43 296.62,-229.82 300.15,-239.81 305.61,-235.43"/>
</g>
<!-- petal width (cm) -->
<g id="node4" class="node">
<title>petal width (cm)</title>
<polygon fill="lightgray" stroke="black" points="186.56,-291.46 109.56,-291.46 109.56,-273.46 186.56,-273.46 186.56,-291.46"/>
<text text-anchor="middle" x="148.06" y="-280.26" font-family="Times New Roman,serif" font-size="9.00">petal width (cm)</text>
</g>
<!-- petal width (cm)&#45;&gt;virginica -->
<g id="edge1" class="edge">
<title>petal width (cm)&#45;&gt;virginica</title>
<path fill="none" stroke="green" stroke-width="0.46" d="M148.06,-273.23C148.06,-266.16 148.06,-255.38 148.06,-244.32"/>
<polygon fill="green" stroke="green" stroke-width="0.46" points="151.56,-244.19 148.06,-234.19 144.56,-244.19 151.56,-244.19"/>
</g>
<!-- 176&#45;&gt;95 -->
<g id="edge13" class="edge">
<title>176&#45;&gt;95</title>
<path fill="none" stroke="green" stroke-width="0.15" stroke-dasharray="1,5" d="M38.06,-179.46C38.06,-167.22 38.06,-151.44 38.06,-138.07"/>
<polygon fill="green" stroke="green" stroke-width="0.15" points="41.56,-137.98 38.06,-127.98 34.56,-137.98 41.56,-137.98"/>
</g>
<!-- 95&#45;&gt;setosa -->
<g id="edge11" class="edge">
<title>95&#45;&gt;setosa</title>
<path fill="none" stroke="green" stroke-width="0.29" d="M52.89,-97.76C69.39,-85.77 96.48,-66.07 117.54,-50.76"/>
<polygon fill="green" stroke="green" stroke-width="0.29" points="119.83,-53.42 125.86,-44.71 115.72,-47.76 119.83,-53.42"/>
</g>
</g>
</svg>
