<?xml version="1.0" encoding="UTF-8" standalone="no"?>
<!DOCTYPE svg PUBLIC "-//W3C//DTD SVG 1.1//EN"
 "http://www.w3.org/Graphics/SVG/1.1/DTD/svg11.dtd">
<!-- Generated by graphviz version 2.49.3 (20211023.0002)
 -->
<!-- Pages: 1 -->
<svg width="372pt" height="238pt"
 viewBox="0.00 0.00 371.50 238.01" xmlns="http://www.w3.org/2000/svg" xmlns:xlink="http://www.w3.org/1999/xlink">
<g id="graph0" class="graph" transform="scale(1 1) rotate(0) translate(4 234.01)">
<polygon fill="white" stroke="transparent" points="-4,4 -4,-234.01 367.5,-234.01 367.5,4 -4,4"/>
<!-- sepal length (cm) -->
<g id="node1" class="node">
<title>sepal length (cm)</title>
<polygon fill="lightgray" stroke="black" points="78,-230.01 0,-230.01 0,-212.01 78,-212.01 78,-230.01"/>
<text text-anchor="middle" x="39" y="-218.81" font-family="Times New Roman,serif" font-size="9.00">sepal length (cm)</text>
</g>
<!-- virginica -->
<g id="node7" class="node">
<title>virginica</title>
<ellipse fill="lightblue" stroke="black" cx="84" cy="-142.77" rx="33.47" ry="33.47"/>
<text text-anchor="middle" x="84" y="-140.57" font-family="Times New Roman,serif" font-size="9.00">virginica</text>
</g>
<!-- sepal length (cm)&#45;&gt;virginica -->
<g id="edge7" class="edge">
<title>sepal length (cm)&#45;&gt;virginica</title>
<path fill="none" stroke="green" stroke-width="0.52" stroke-dasharray="1,5" d="M43.82,-211.85C48.3,-204.26 55.31,-192.38 62.22,-180.67"/>
<polygon fill="green" stroke="green" stroke-width="0.52" points="65.38,-182.2 67.45,-171.81 59.35,-178.64 65.38,-182.2"/>
</g>
<!-- sepal width (cm) -->
<g id="node2" class="node">
<title>sepal width (cm)</title>
<polygon fill="lightgray" stroke="black" points="363.5,-230.01 286.5,-230.01 286.5,-212.01 363.5,-212.01 363.5,-230.01"/>
<text text-anchor="middle" x="325" y="-218.81" font-family="Times New Roman,serif" font-size="9.00">sepal width (cm)</text>
</g>
<!-- setosa -->
<g id="node5" class="node">
<title>setosa</title>
<ellipse fill="lightblue" stroke="black" cx="163" cy="-142.77" rx="27.65" ry="27.65"/>
<text text-anchor="middle" x="163" y="-140.57" font-family="Times New Roman,serif" font-size="9.00">setosa</text>
</g>
<!-- sepal width (cm)&#45;&gt;setosa -->
<g id="edge1" class="edge">
<title>sepal width (cm)&#45;&gt;setosa</title>
<path fill="none" stroke="green" stroke-width="0.5" d="M291.67,-211.98C265.6,-204.85 229.02,-192.92 200,-176.01 196.72,-174.09 193.45,-171.87 190.3,-169.5"/>
<polygon fill="green" stroke="green" stroke-width="0.5" points="192.26,-166.58 182.29,-162.99 187.85,-172.01 192.26,-166.58"/>
</g>
<!-- 75 -->
<g id="node9" class="node">
<title>75</title>
<ellipse fill="white" stroke="black" cx="325" cy="-142.77" rx="18.27" ry="18.27"/>
<text text-anchor="middle" x="325" y="-140.57" font-family="Times New Roman,serif" font-size="9.00">75</text>
</g>
<!-- sepal width (cm)&#45;&gt;75 -->
<g id="edge11" class="edge">
<title>sepal width (cm)&#45;&gt;75</title>
<path fill="none" stroke="green" stroke-width="0.51" stroke-dasharray="1,5" d="M325,-211.85C325,-202.3 325,-185.97 325,-171.7"/>
<polygon fill="green" stroke="green" stroke-width="0.51" points="328.5,-171.33 325,-161.33 321.5,-171.33 328.5,-171.33"/>
</g>
<!-- petal length (cm) -->
<g id="node3" class="node">
<title>petal length (cm)</title>
<polygon fill="lightgray" stroke="black" points="268.5,-230.01 191.5,-230.01 191.5,-212.01 268.5,-212.01 268.5,-230.01"/>
<text text-anchor="middle" x="230" y="-218.81" font-family="Times New Roman,serif" font-size="9.00">petal length (cm)</text>
</g>
<!-- petal length (cm)&#45;&gt;setosa -->
<g id="edge2" class="edge">
<title>petal length (cm)&#45;&gt;setosa</title>
<path fill="none" stroke="red" stroke-width="0.33" d="M222.83,-211.85C214.46,-202.32 200.15,-186.05 187.63,-171.8"/>
<polygon fill="red" stroke="red" stroke-width="0.33" points="190.14,-169.35 180.91,-164.15 184.88,-173.97 190.14,-169.35"/>
</g>
<!-- versicolor -->
<g id="node6" class="node">
<title>versicolor</title>
<ellipse fill="lightblue" stroke="black" cx="279" cy="-36.77" rx="36.54" ry="36.54"/>
<text text-anchor="middle" x="279" y="-34.57" font-family="Times New Roman,serif" font-size="9.00">versicolor</text>
</g>
<!-- petal length (cm)&#45;&gt;versicolor -->
<g id="edge6" class="edge">
<title>petal length (cm)&#45;&gt;versicolor</title>
<path fill="none" stroke="green" stroke-width="0.47" stroke-dasharray="1,5" d="M237.25,-211.91C244.3,-203.55 254.69,-189.81 260,-176.01 271.35,-146.54 276.06,-111.24 277.96,-83.69"/>
<polygon fill="green" stroke="green" stroke-width="0.47" points="281.46,-83.73 278.56,-73.54 274.48,-83.31 281.46,-83.73"/>
</g>
<!-- petal length (cm)&#45;&gt;virginica -->
<g id="edge5" class="edge">
<title>petal length (cm)&#45;&gt;virginica</title>
<path fill="none" stroke="red" stroke-width="0.16" d="M206.47,-212.01C184.85,-204.21 152.26,-191.3 126,-176.01 123.14,-174.34 120.25,-172.51 117.41,-170.58"/>
<polygon fill="red" stroke="red" stroke-width="0.16" points="119.22,-167.58 109.04,-164.63 115.16,-173.28 119.22,-167.58"/>
</g>
<!-- petal length (cm)&#45;&gt;75 -->
<g id="edge8" class="edge">
<title>petal length (cm)&#45;&gt;75</title>
<path fill="none" stroke="green" stroke-width="0.3" d="M243.04,-211.88C256.14,-203.5 276.67,-189.75 293,-176.01 297.37,-172.33 301.84,-168.15 305.99,-164.04"/>
<polygon fill="green" stroke="green" stroke-width="0.3" points="308.53,-166.45 313.04,-156.87 303.53,-161.55 308.53,-166.45"/>
</g>
<!-- petal width (cm) -->
<g id="node4" class="node">
<title>petal width (cm)</title>
<polygon fill="lightgray" stroke="black" points="173.5,-230.01 96.5,-230.01 96.5,-212.01 173.5,-212.01 173.5,-230.01"/>
<text text-anchor="middle" x="135" y="-218.81" font-family="Times New Roman,serif" font-size="9.00">petal width (cm)</text>
</g>
<!-- petal width (cm)&#45;&gt;setosa -->
<g id="edge3" class="edge">
<title>petal width (cm)&#45;&gt;setosa</title>
<path fill="none" stroke="green" stroke-width="0.26" d="M138,-211.85C140.94,-203.85 145.62,-191.09 150.15,-178.77"/>
<polygon fill="green" stroke="green" stroke-width="0.26" points="153.54,-179.67 153.71,-169.08 146.97,-177.26 153.54,-179.67"/>
</g>
<!-- petal width (cm)&#45;&gt;virginica -->
<g id="edge4" class="edge">
<title>petal width (cm)&#45;&gt;virginica</title>
<path fill="none" stroke="green" stroke-width="0.46" d="M129.54,-211.85C124.24,-203.92 115.81,-191.32 107.64,-179.11"/>
<polygon fill="green" stroke="green" stroke-width="0.46" points="110.54,-177.14 102.07,-170.78 104.72,-181.04 110.54,-177.14"/>
</g>
<!-- 136 -->
<g id="node8" class="node">
<title>136</title>
<ellipse fill="white" stroke="black" cx="230" cy="-142.77" rx="21.43" ry="21.43"/>
<text text-anchor="middle" x="230" y="-140.57" font-family="Times New Roman,serif" font-size="9.00">136</text>
</g>
<!-- 136&#45;&gt;versicolor -->
<g id="edge10" class="edge">
<title>136&#45;&gt;versicolor</title>
<path fill="none" stroke="red" stroke-width="0.25" d="M238.76,-123.18C244.46,-111.08 252.13,-94.8 259.24,-79.7"/>
<polygon fill="red" stroke="red" stroke-width="0.25" points="262.48,-81.04 263.58,-70.5 256.15,-78.06 262.48,-81.04"/>
</g>
<!-- 75&#45;&gt;versicolor -->
<g id="edge9" class="edge">
<title>75&#45;&gt;versicolor</title>
<path fill="none" stroke="green" stroke-width="0.1" d="M317.81,-125.52C312.41,-113.3 304.74,-95.96 297.64,-79.92"/>
<polygon fill="green" stroke="green" stroke-width="0.1" points="300.8,-78.41 293.55,-70.68 294.4,-81.24 300.8,-78.41"/>
</g>
</g>
</svg>
