<?xml version="1.0" encoding="UTF-8" standalone="no"?>
<!DOCTYPE svg PUBLIC "-//W3C//DTD SVG 1.1//EN"
 "http://www.w3.org/Graphics/SVG/1.1/DTD/svg11.dtd">
<!-- Generated by graphviz version 2.49.3 (20211023.0002)
 -->
<!-- Pages: 1 -->
<svg width="372pt" height="136pt"
 viewBox="0.00 0.00 372.00 135.54" xmlns="http://www.w3.org/2000/svg" xmlns:xlink="http://www.w3.org/1999/xlink">
<g id="graph0" class="graph" transform="scale(1 1) rotate(0) translate(4 131.54)">
<polygon fill="white" stroke="transparent" points="-4,4 -4,-131.54 368,-131.54 368,4 -4,4"/>
<!-- sepal length (cm) -->
<g id="node1" class="node">
<title>sepal length (cm)</title>
<polygon fill="lightgray" stroke="black" points="268.5,-127.54 190.5,-127.54 190.5,-109.54 268.5,-109.54 268.5,-127.54"/>
<text text-anchor="middle" x="229.5" y="-116.34" font-family="Times New Roman,serif" font-size="9.00">sepal length (cm)</text>
</g>
<!-- versicolor -->
<g id="node6" class="node">
<title>versicolor</title>
<ellipse fill="lightblue" stroke="black" cx="159.5" cy="-36.77" rx="36.54" ry="36.54"/>
<text text-anchor="middle" x="159.5" y="-34.57" font-family="Times New Roman,serif" font-size="9.00">versicolor</text>
</g>
<!-- sepal length (cm)&#45;&gt;versicolor -->
<g id="edge1" class="edge">
<title>sepal length (cm)&#45;&gt;versicolor</title>
<path fill="none" stroke="green" stroke-width="0.4" stroke-dasharray="1,5" d="M222.27,-109.3C214.68,-100.65 202.22,-86.45 190.4,-72.98"/>
<polygon fill="green" stroke="green" stroke-width="0.4" points="192.78,-70.38 183.55,-65.18 187.52,-75 192.78,-70.38"/>
</g>
<!-- sepal width (cm) -->
<g id="node2" class="node">
<title>sepal width (cm)</title>
<polygon fill="lightgray" stroke="black" points="77,-127.54 0,-127.54 0,-109.54 77,-109.54 77,-127.54"/>
<text text-anchor="middle" x="38.5" y="-116.34" font-family="Times New Roman,serif" font-size="9.00">sepal width (cm)</text>
</g>
<!-- setosa -->
<g id="node5" class="node">
<title>setosa</title>
<ellipse fill="lightblue" stroke="black" cx="71.5" cy="-36.77" rx="27.65" ry="27.65"/>
<text text-anchor="middle" x="71.5" y="-34.57" font-family="Times New Roman,serif" font-size="9.00">setosa</text>
</g>
<!-- sepal width (cm)&#45;&gt;setosa -->
<g id="edge6" class="edge">
<title>sepal width (cm)&#45;&gt;setosa</title>
<path fill="none" stroke="green" stroke-width="0.35" d="M41.91,-109.3C45.57,-100.44 51.65,-85.76 57.34,-72"/>
<polygon fill="green" stroke="green" stroke-width="0.35" points="60.6,-73.28 61.19,-62.7 54.13,-70.6 60.6,-73.28"/>
</g>
<!-- sepal width (cm)&#45;&gt;versicolor -->
<g id="edge8" class="edge">
<title>sepal width (cm)&#45;&gt;versicolor</title>
<path fill="none" stroke="green" stroke-width="0.16" stroke-dasharray="1,5" d="M51.79,-109.46C65.96,-100.78 89.01,-86.49 108.5,-73.54 112.78,-70.69 117.23,-67.67 121.64,-64.64"/>
<polygon fill="green" stroke="green" stroke-width="0.16" points="123.79,-67.41 130.01,-58.83 119.8,-61.66 123.79,-67.41"/>
</g>
<!-- petal length (cm) -->
<g id="node3" class="node">
<title>petal length (cm)</title>
<polygon fill="lightgray" stroke="black" points="364,-127.54 287,-127.54 287,-109.54 364,-109.54 364,-127.54"/>
<text text-anchor="middle" x="325.5" y="-116.34" font-family="Times New Roman,serif" font-size="9.00">petal length (cm)</text>
</g>
<!-- petal length (cm)&#45;&gt;versicolor -->
<g id="edge3" class="edge">
<title>petal length (cm)&#45;&gt;versicolor</title>
<path fill="none" stroke="green" stroke-width="0.31" d="M308.67,-109.45C283.81,-97.5 236.46,-74.75 201.76,-58.08"/>
<polygon fill="green" stroke="green" stroke-width="0.31" points="202.86,-54.72 192.33,-53.55 199.83,-61.03 202.86,-54.72"/>
</g>
<!-- virginica -->
<g id="node7" class="node">
<title>virginica</title>
<ellipse fill="lightblue" stroke="black" cx="299.5" cy="-36.77" rx="33.47" ry="33.47"/>
<text text-anchor="middle" x="299.5" y="-34.57" font-family="Times New Roman,serif" font-size="9.00">virginica</text>
</g>
<!-- petal length (cm)&#45;&gt;virginica -->
<g id="edge7" class="edge">
<title>petal length (cm)&#45;&gt;virginica</title>
<path fill="none" stroke="green" stroke-width="0.16" d="M322.82,-109.3C320.38,-101.84 316.6,-90.25 312.79,-78.55"/>
<polygon fill="green" stroke="green" stroke-width="0.16" points="316.04,-77.22 309.61,-68.8 309.38,-79.39 316.04,-77.22"/>
</g>
<!-- petal width (cm) -->
<g id="node4" class="node">
<title>petal width (cm)</title>
<polygon fill="lightgray" stroke="black" points="172,-127.54 95,-127.54 95,-109.54 172,-109.54 172,-127.54"/>
<text text-anchor="middle" x="133.5" y="-116.34" font-family="Times New Roman,serif" font-size="9.00">petal width (cm)</text>
</g>
<!-- petal width (cm)&#45;&gt;setosa -->
<g id="edge4" class="edge">
<title>petal width (cm)&#45;&gt;setosa</title>
<path fill="none" stroke="red" stroke-width="0.35" d="M127.1,-109.3C119.37,-99.36 105.95,-82.1 94.24,-67.02"/>
<polygon fill="red" stroke="red" stroke-width="0.35" points="96.85,-64.68 87.95,-58.93 91.32,-68.97 96.85,-64.68"/>
</g>
<!-- petal width (cm)&#45;&gt;versicolor -->
<g id="edge5" class="edge">
<title>petal width (cm)&#45;&gt;versicolor</title>
<path fill="none" stroke="green" stroke-width="0.66" stroke-dasharray="1,5" d="M136.18,-109.3C138.39,-102.54 141.7,-92.38 145.14,-81.83"/>
<polygon fill="green" stroke="green" stroke-width="0.66" points="148.53,-82.71 148.31,-72.11 141.88,-80.54 148.53,-82.71"/>
</g>
<!-- petal width (cm)&#45;&gt;virginica -->
<g id="edge2" class="edge">
<title>petal width (cm)&#45;&gt;virginica</title>
<path fill="none" stroke="green" stroke-width="0.7" d="M150.33,-109.45C175.95,-97.14 225.43,-73.37 260.36,-56.58"/>
<polygon fill="green" stroke="green" stroke-width="0.7" points="262.3,-59.53 269.8,-52.04 259.27,-53.22 262.3,-59.53"/>
</g>
</g>
</svg>
