<?xml version="1.0" encoding="UTF-8" standalone="no"?>
<!DOCTYPE svg PUBLIC "-//W3C//DTD SVG 1.1//EN"
 "http://www.w3.org/Graphics/SVG/1.1/DTD/svg11.dtd">
<!-- Generated by graphviz version 2.49.3 (20211023.0002)
 -->
<!-- Pages: 1 -->
<svg width="372pt" height="136pt"
 viewBox="0.00 0.00 372.00 135.54" xmlns="http://www.w3.org/2000/svg" xmlns:xlink="http://www.w3.org/1999/xlink">
<g id="graph0" class="graph" transform="scale(1 1) rotate(0) translate(4 131.54)">
<polygon fill="white" stroke="transparent" points="-4,4 -4,-131.54 368,-131.54 368,4 -4,4"/>
<!-- sepal length (cm) -->
<g id="node1" class="node">
<title>sepal length (cm)</title>
<polygon fill="lightgray" stroke="black" points="268.5,-127.54 190.5,-127.54 190.5,-109.54 268.5,-109.54 268.5,-127.54"/>
<text text-anchor="middle" x="229.5" y="-116.34" font-family="Times New Roman,serif" font-size="9.00">sepal length (cm)</text>
</g>
<!-- setosa -->
<g id="node5" class="node">
<title>setosa</title>
<ellipse fill="lightblue" stroke="black" cx="133.5" cy="-36.77" rx="27.65" ry="27.65"/>
<text text-anchor="middle" x="133.5" y="-34.57" font-family="Times New Roman,serif" font-size="9.00">setosa</text>
</g>
<!-- sepal length (cm)&#45;&gt;setosa -->
<g id="edge7" class="edge">
<title>sepal length (cm)&#45;&gt;setosa</title>
<path fill="none" stroke="green" stroke-width="0.12" d="M219.59,-109.3C206.11,-98.11 181.47,-77.63 161.99,-61.44"/>
<polygon fill="green" stroke="green" stroke-width="0.12" points="164.2,-58.73 154.27,-55.03 159.73,-64.11 164.2,-58.73"/>
</g>
<!-- versicolor -->
<g id="node6" class="node">
<title>versicolor</title>
<ellipse fill="lightblue" stroke="black" cx="316.5" cy="-36.77" rx="36.54" ry="36.54"/>
<text text-anchor="middle" x="316.5" y="-34.57" font-family="Times New Roman,serif" font-size="9.00">versicolor</text>
</g>
<!-- sepal length (cm)&#45;&gt;versicolor -->
<g id="edge1" class="edge">
<title>sepal length (cm)&#45;&gt;versicolor</title>
<path fill="none" stroke="green" stroke-width="0.38" d="M238.48,-109.3C248.78,-99.86 266.28,-83.82 282.1,-69.31"/>
<polygon fill="green" stroke="green" stroke-width="0.38" points="284.69,-71.69 289.69,-62.35 279.95,-66.53 284.69,-71.69"/>
</g>
<!-- virginica -->
<g id="node7" class="node">
<title>virginica</title>
<ellipse fill="lightblue" stroke="black" cx="220.5" cy="-36.77" rx="33.47" ry="33.47"/>
<text text-anchor="middle" x="220.5" y="-34.57" font-family="Times New Roman,serif" font-size="9.00">virginica</text>
</g>
<!-- sepal length (cm)&#45;&gt;virginica -->
<g id="edge4" class="edge">
<title>sepal length (cm)&#45;&gt;virginica</title>
<path fill="none" stroke="green" stroke-width="0.32" stroke-dasharray="1,5" d="M228.57,-109.3C227.77,-102.17 226.54,-91.27 225.28,-80.11"/>
<polygon fill="green" stroke="green" stroke-width="0.32" points="228.72,-79.44 224.12,-69.9 221.77,-80.23 228.72,-79.44"/>
</g>
<!-- sepal width (cm) -->
<g id="node2" class="node">
<title>sepal width (cm)</title>
<polygon fill="lightgray" stroke="black" points="77,-127.54 0,-127.54 0,-109.54 77,-109.54 77,-127.54"/>
<text text-anchor="middle" x="38.5" y="-116.34" font-family="Times New Roman,serif" font-size="9.00">sepal width (cm)</text>
</g>
<!-- sepal width (cm)&#45;&gt;setosa -->
<g id="edge3" class="edge">
<title>sepal width (cm)&#45;&gt;setosa</title>
<path fill="none" stroke="green" stroke-width="0.5" d="M48.31,-109.3C61.5,-98.23 85.51,-78.06 104.69,-61.96"/>
<polygon fill="green" stroke="green" stroke-width="0.5" points="107.16,-64.46 112.57,-55.34 102.66,-59.09 107.16,-64.46"/>
</g>
<!-- petal length (cm) -->
<g id="node3" class="node">
<title>petal length (cm)</title>
<polygon fill="lightgray" stroke="black" points="172,-127.54 95,-127.54 95,-109.54 172,-109.54 172,-127.54"/>
<text text-anchor="middle" x="133.5" y="-116.34" font-family="Times New Roman,serif" font-size="9.00">petal length (cm)</text>
</g>
<!-- petal length (cm)&#45;&gt;setosa -->
<g id="edge5" class="edge">
<title>petal length (cm)&#45;&gt;setosa</title>
<path fill="none" stroke="green" stroke-width="0.24" stroke-dasharray="1,5" d="M133.5,-109.3C133.5,-101.01 133.5,-87.62 133.5,-74.66"/>
<polygon fill="green" stroke="green" stroke-width="0.24" points="137,-74.46 133.5,-64.46 130,-74.46 137,-74.46"/>
</g>
<!-- petal length (cm)&#45;&gt;virginica -->
<g id="edge2" class="edge">
<title>petal length (cm)&#45;&gt;virginica</title>
<path fill="none" stroke="green" stroke-width="0.38" d="M142.48,-109.3C153.4,-99.29 172.42,-81.86 188.94,-66.71"/>
<polygon fill="green" stroke="green" stroke-width="0.38" points="191.31,-69.28 196.32,-59.94 186.58,-64.12 191.31,-69.28"/>
</g>
<!-- petal width (cm) -->
<g id="node4" class="node">
<title>petal width (cm)</title>
<polygon fill="lightgray" stroke="black" points="364,-127.54 287,-127.54 287,-109.54 364,-109.54 364,-127.54"/>
<text text-anchor="middle" x="325.5" y="-116.34" font-family="Times New Roman,serif" font-size="9.00">petal width (cm)</text>
</g>
<!-- petal width (cm)&#45;&gt;versicolor -->
<g id="edge6" class="edge">
<title>petal width (cm)&#45;&gt;versicolor</title>
<path fill="none" stroke="green" stroke-width="0.22" stroke-dasharray="1,5" d="M324.57,-109.3C323.85,-102.91 322.79,-93.5 321.67,-83.59"/>
<polygon fill="green" stroke="green" stroke-width="0.22" points="325.14,-83.15 320.54,-73.6 318.19,-83.93 325.14,-83.15"/>
</g>
</g>
</svg>
